<svg xmlns="http://www.w3.org/2000/svg" width="439" height="64" viewBox="0 0 439 64" fill="none">
  <path
    d="M81.8179 56.856L81.0831 57.5343L81.1102 57.5637L81.1396 57.5908L81.8179 56.856ZM85.3459 10.416L84.6332 9.71457L84.6331 9.71467L85.3459 10.416ZM105.65 8.04L105.143 8.90194L105.143 8.90194L105.65 8.04ZM111.41 13.944L110.537 14.4311L111.418 16.012L112.287 14.424L111.41 13.944ZM117.098 8.04L117.6 8.90503L117.606 8.90131L117.612 8.8975L117.098 8.04ZM137.402 10.416L136.689 11.1175L136.695 11.1231L137.402 10.416ZM140.93 56.856L141.608 57.5908L141.623 57.5773L141.637 57.5631L140.93 56.856ZM135.962 56.856L135.227 57.5343L135.241 57.549L135.255 57.5631L135.962 56.856ZM132.722 14.304L133.485 13.6581L133.485 13.6581L132.722 14.304ZM117.386 14.52L116.644 13.8491L116.644 13.85L117.386 14.52ZM113.786 56.856L114.493 57.5631L114.493 57.5631L113.786 56.856ZM108.962 56.856L108.227 57.5343L108.241 57.549L108.255 57.5631L108.962 56.856ZM105.29 14.592L104.541 15.2542L104.549 15.2634L104.557 15.2725L105.29 14.592ZM90.0979 14.376L90.8614 15.022L90.8693 15.0124L90.0979 14.376ZM86.7859 56.856L87.4642 57.5908L87.4789 57.5773L87.493 57.5631L86.7859 56.856ZM84.2659 56.72C83.4594 56.72 82.9018 56.4956 82.4962 56.1212L81.1396 57.5908C81.982 58.3684 83.0564 58.72 84.2659 58.72V56.72ZM82.5527 56.1777C82.1862 55.7806 81.9539 55.2046 81.9539 54.336H79.9539C79.9539 55.5794 80.2977 56.6834 81.0831 57.5343L82.5527 56.1777ZM81.9539 54.336V22.8H79.9539V54.336H81.9539ZM81.9539 22.8C81.9539 17.7095 83.3603 13.8601 86.0587 11.1173L84.6331 9.71467C81.4756 12.9239 79.9539 17.3305 79.9539 22.8H81.9539ZM86.0586 11.1174C88.8047 8.32711 92.6274 6.88 97.6579 6.88V4.88C92.2244 4.88 87.8391 6.45689 84.6332 9.71457L86.0586 11.1174ZM97.6579 6.88C100.362 6.88 102.851 7.55366 105.143 8.90194L106.157 7.17807C103.553 5.64634 100.714 4.88 97.6579 4.88V6.88ZM105.143 8.90194C107.437 10.2512 109.231 12.0893 110.537 14.4311L112.283 13.4569C110.805 10.8067 108.759 8.70882 106.157 7.17807L105.143 8.90194ZM112.287 14.424C113.596 12.0327 115.365 10.2012 117.6 8.90503L116.596 7.17497C114.031 8.66285 112.008 10.7673 110.533 13.464L112.287 14.424ZM117.612 8.8975C119.85 7.55514 122.334 6.88 125.09 6.88V4.88C121.989 4.88 119.146 5.64486 116.583 7.18251L117.612 8.8975ZM125.09 6.88C130.12 6.88 133.943 8.32711 136.689 11.1174L138.115 9.71457C134.909 6.45689 130.523 4.88 125.09 4.88V6.88ZM136.695 11.1231C139.438 13.8666 140.866 17.714 140.866 22.8H142.866C142.866 17.326 141.318 12.9174 138.109 9.7089L136.695 11.1231ZM140.866 22.8V54.336H142.866V22.8H140.866ZM140.866 54.336C140.866 55.1827 140.623 55.7486 140.223 56.1489L141.637 57.5631C142.485 56.7155 142.866 55.6014 142.866 54.336H140.866ZM140.252 56.1212C139.855 56.4878 139.279 56.72 138.41 56.72V58.72C139.653 58.72 140.757 58.3763 141.608 57.5908L140.252 56.1212ZM138.41 56.72C137.537 56.72 137.007 56.4864 136.669 56.1489L135.255 57.5631C136.069 58.3776 137.171 58.72 138.41 58.72V56.72ZM136.697 56.1777C136.33 55.7806 136.098 55.2046 136.098 54.336H134.098C134.098 55.5794 134.442 56.6834 135.227 57.5343L136.697 56.1777ZM136.098 54.336V22.8H134.098V54.336H136.098ZM136.098 22.8C136.098 18.8947 135.286 15.7865 133.485 13.6581L131.959 14.9499C133.326 16.5656 134.098 19.1213 134.098 22.8H136.098ZM133.485 13.6581C131.634 11.4699 128.67 10.496 124.874 10.496V12.496C128.374 12.496 130.642 13.3941 131.959 14.9499L133.485 13.6581ZM124.874 10.496C121.475 10.496 118.69 11.5883 116.644 13.8491L118.127 15.1909C119.73 13.4197 121.937 12.496 124.874 12.496V10.496ZM116.644 13.85C114.652 16.0566 113.722 19.086 113.722 22.8H115.722C115.722 19.4101 116.568 16.9194 118.128 15.19L116.644 13.85ZM113.722 22.8V54.336H115.722V22.8H113.722ZM113.722 54.336C113.722 55.1827 113.479 55.7486 113.079 56.1489L114.493 57.5631C115.341 56.7155 115.722 55.6014 115.722 54.336H113.722ZM113.079 56.1489C112.733 56.4949 112.219 56.72 111.41 56.72V58.72C112.616 58.72 113.687 58.3691 114.493 57.5631L113.079 56.1489ZM111.41 56.72C110.537 56.72 110.007 56.4864 109.669 56.1489L108.255 57.5631C109.069 58.3776 110.171 58.72 111.41 58.72V56.72ZM109.697 56.1777C109.33 55.7806 109.098 55.2046 109.098 54.336H107.098C107.098 55.5794 107.442 56.6834 108.227 57.5343L109.697 56.1777ZM109.098 54.336V22.8H107.098V54.336H109.098ZM109.098 22.8C109.098 19.159 108.107 16.1566 106.023 13.9115L104.557 15.2725C106.216 17.0594 107.098 19.529 107.098 22.8H109.098ZM106.039 13.9298C103.999 11.6212 101.238 10.496 97.8739 10.496V12.496C100.75 12.496 102.933 13.4348 104.541 15.2542L106.039 13.9298ZM97.8739 10.496C94.1132 10.496 91.1736 11.5008 89.3265 13.7396L90.8693 15.0124C92.1903 13.4112 94.4346 12.496 97.8739 12.496V10.496ZM89.3345 13.7301C87.5352 15.8566 86.7219 18.9389 86.7219 22.8H88.7219C88.7219 19.1731 89.4926 16.6394 90.8613 15.0219L89.3345 13.7301ZM86.7219 22.8V54.336H88.7219V22.8H86.7219ZM86.7219 54.336C86.7219 55.1827 86.4791 55.7486 86.0788 56.1489L87.493 57.5631C88.3407 56.7155 88.7219 55.6014 88.7219 54.336H86.7219ZM86.1076 56.1212C85.7105 56.4878 85.1345 56.72 84.2659 56.72V58.72C85.5093 58.72 86.6133 58.3763 87.4642 57.5908L86.1076 56.1212ZM168.361 54.48L167.88 55.3567L167.884 55.3591L168.361 54.48ZM159.145 45.408L158.268 45.8891L158.272 45.8955L158.275 45.9018L159.145 45.408ZM159.145 18.264L158.273 17.7747L158.271 17.7784L159.145 18.264ZM168.361 9.12L167.884 8.24088L167.88 8.24333L168.361 9.12ZM195.505 9.12L195.024 9.99668L195.028 9.99911L195.505 9.12ZM204.721 18.264L203.844 18.7451L203.848 18.7515L203.851 18.7578L204.721 18.264ZM204.721 45.408L203.849 44.9188L203.847 44.9224L204.721 45.408ZM195.505 54.48L195.028 53.6009L195.024 53.6033L195.505 54.48ZM191.977 49.728L192.459 50.6042L192.464 50.6015L191.977 49.728ZM198.817 42.672L197.934 42.2029L197.934 42.2029L198.817 42.672ZM198.745 20.856L197.867 21.3358L197.871 21.3416L198.745 20.856ZM191.761 13.872L192.231 12.9893L192.231 12.9893L191.761 13.872ZM171.673 13.944L171.18 13.074L171.173 13.0776L171.673 13.944ZM165.049 21L164.16 20.5417L164.157 20.5471L165.049 21ZM165.121 42.672L164.232 43.1303L164.238 43.1412L165.121 42.672ZM171.889 49.728L171.396 50.598L171.404 50.6029L171.413 50.6076L171.889 49.728ZM181.969 56.72C177.027 56.72 172.658 55.6722 168.837 53.6009L167.884 55.3591C172.032 57.6078 176.735 58.72 181.969 58.72V56.72ZM168.842 53.6033C165.068 51.5321 162.13 48.6403 160.014 44.9142L158.275 45.9018C160.575 49.9517 163.782 53.1079 167.88 55.3567L168.842 53.6033ZM160.021 44.9269C157.953 41.1584 156.905 36.7923 156.905 31.8H154.905C154.905 37.0797 156.016 41.7856 158.268 45.8891L160.021 44.9269ZM156.905 31.8C156.905 26.8074 157.953 22.4675 160.019 18.7496L158.271 17.7784C156.016 21.8365 154.905 26.5206 154.905 31.8H156.905ZM160.017 18.7533C162.134 14.9795 165.071 12.0662 168.842 9.99667L167.88 8.24333C163.779 10.4938 160.572 13.6765 158.273 17.7748L160.017 18.7533ZM168.837 9.99911C172.658 7.92778 177.027 6.88 181.969 6.88V4.88C176.735 4.88 172.032 5.99222 167.884 8.24089L168.837 9.99911ZM181.969 6.88C186.911 6.88 191.254 7.92785 195.024 9.99667L195.986 8.24333C191.884 5.99215 187.202 4.88 181.969 4.88V6.88ZM195.028 9.99911C198.845 12.0685 201.777 14.9791 203.844 18.7451L205.597 17.7829C203.344 13.6769 200.133 10.4915 195.981 8.24089L195.028 9.99911ZM203.851 18.7578C205.962 22.4741 207.033 26.8111 207.033 31.8H209.033C209.033 26.517 207.896 21.8299 205.59 17.7702L203.851 18.7578ZM207.033 31.8C207.033 36.7887 205.962 41.1518 203.849 44.9188L205.593 45.8973C207.896 41.7922 209.033 37.0834 209.033 31.8H207.033ZM203.847 44.9224C201.781 48.6408 198.848 51.5298 195.028 53.6009L195.981 55.3591C200.129 53.1103 203.341 49.9513 205.595 45.8937L203.847 44.9224ZM195.024 53.6033C191.254 55.6722 186.911 56.72 181.969 56.72V58.72C187.202 58.72 191.884 57.6079 195.986 55.3567L195.024 53.6033ZM181.969 53.104C185.903 53.104 189.41 52.2812 192.459 50.6042L191.495 48.8518C188.784 50.3429 185.618 51.104 181.969 51.104V53.104ZM192.464 50.6015C195.567 48.872 197.981 46.3765 199.7 43.1412L197.934 42.2029C196.388 45.1115 194.243 47.32 191.49 48.8545L192.464 50.6015ZM199.7 43.1412C201.423 39.8984 202.265 36.107 202.265 31.8H200.265C200.265 35.845 199.475 39.3016 197.934 42.2029L199.7 43.1412ZM202.265 31.8C202.265 27.3975 201.399 23.574 199.619 20.3704L197.871 21.3416C199.451 24.186 200.265 27.6585 200.265 31.8H202.265ZM199.622 20.3762C197.852 17.14 195.386 14.6686 192.231 12.9893L191.291 14.7547C194.088 16.2434 196.277 18.428 197.867 21.3358L199.622 20.3762ZM192.231 12.9893C189.091 11.3181 185.518 10.496 181.537 10.496V12.496C185.236 12.496 188.479 13.2579 191.291 14.7547L192.231 12.9893ZM181.537 10.496C177.689 10.496 174.227 11.3472 171.18 13.074L172.166 14.814C174.879 13.2768 177.993 12.496 181.537 12.496V10.496ZM171.173 13.0776C168.165 14.811 165.827 17.3094 164.16 20.5417L165.938 21.4583C167.439 18.5466 169.516 16.341 172.172 14.8104L171.173 13.0776ZM164.157 20.5471C162.535 23.7402 161.745 27.5024 161.745 31.8H163.745C163.745 27.7456 164.49 24.3078 165.94 21.4529L164.157 20.5471ZM161.745 31.8C161.745 36.1026 162.561 39.89 164.232 43.1303L166.01 42.2137C164.512 39.31 163.745 35.8494 163.745 31.8H161.745ZM164.238 43.1412C165.954 46.3722 168.342 48.8674 171.396 50.598L172.382 48.858C169.676 47.3247 167.551 45.1158 166.004 42.2029L164.238 43.1412ZM171.413 50.6076C174.506 52.281 178.034 53.104 181.969 53.104V51.104C178.32 51.104 175.127 50.343 172.365 48.8485L171.413 50.6076ZM236.599 54.264L237.375 53.6334L237.375 53.6334L236.599 54.264ZM231.415 43.032L232.372 42.7398L232.371 42.7388L231.415 43.032ZM221.191 9.696L220.221 9.93854L220.228 9.96406L220.235 9.98922L221.191 9.696ZM226.519 6.528L225.886 7.30196L225.902 7.31533L225.919 7.328L226.519 6.528ZM227.887 8.832L228.845 8.54484L228.844 8.54084L227.887 8.832ZM237.967 42.456L237.009 42.7432L237.012 42.7528L237.967 42.456ZM240.991 50.016L240.139 50.5386L240.143 50.5448L240.147 50.5511L240.991 50.016ZM247.039 49.944L246.199 49.4019L246.193 49.4116L246.187 49.4215L247.039 49.944ZM250.063 42.456L251.021 42.7446L251.021 42.7445L250.063 42.456ZM260.215 8.76L259.262 8.4568L259.26 8.46415L259.258 8.47153L260.215 8.76ZM261.511 6.528L260.911 5.728L260.894 5.74067L260.878 5.75404L261.511 6.528ZM266.911 9.696L267.867 9.9911L267.872 9.97519L267.876 9.95912L266.911 9.696ZM256.615 43.032L255.66 42.7369L255.659 42.7391L256.615 43.032ZM251.287 54.408L252.042 55.0642L252.049 55.0561L251.287 54.408ZM244.015 56.72C241.232 56.72 239.05 55.6945 237.375 53.6334L235.823 54.8946C237.893 57.4416 240.654 58.72 244.015 58.72V56.72ZM237.375 53.6334C235.627 51.4808 233.944 47.8853 232.372 42.7398L230.459 43.3242C232.055 48.5467 233.828 52.4392 235.823 54.8946L237.375 53.6334ZM232.371 42.7388L222.147 9.40279L220.235 9.98922L230.459 43.3252L232.371 42.7388ZM222.162 9.45347C222.067 9.07674 222 8.78186 221.956 8.56388C221.907 8.31934 221.903 8.24091 221.903 8.256H219.903C219.903 8.46309 219.948 8.72066 219.995 8.95612C220.047 9.21814 220.123 9.54727 220.221 9.93854L222.162 9.45347ZM221.903 8.256C221.903 7.71654 222.071 7.45213 222.305 7.2804C222.597 7.06626 223.156 6.88 224.143 6.88V4.88C222.971 4.88 221.91 5.08974 221.122 5.66759C220.276 6.28787 219.903 7.21146 219.903 8.256H221.903ZM224.143 6.88C225.089 6.88 225.612 7.07738 225.886 7.30196L227.153 5.75404C226.371 5.11462 225.31 4.88 224.143 4.88V6.88ZM225.919 7.328C226.251 7.57638 226.622 8.10934 226.931 9.12316L228.844 8.54084C228.481 7.34667 227.94 6.34362 227.119 5.728L225.919 7.328ZM226.929 9.11916L237.009 42.7432L238.925 42.1689L228.845 8.54484L226.929 9.11916ZM237.012 42.7528C238.12 46.3157 239.157 48.9375 240.139 50.5386L241.844 49.4935C241.001 48.1185 240.023 45.7003 238.922 42.1592L237.012 42.7528ZM240.147 50.5511C241.137 52.1143 242.41 53.176 244.015 53.176V51.176C243.413 51.176 242.67 50.7977 241.836 49.481L240.147 50.5511ZM244.015 53.176C245.637 53.176 246.909 52.07 247.892 50.4666L246.187 49.4215C245.346 50.794 244.602 51.176 244.015 51.176V53.176ZM247.88 50.4861C248.92 48.8737 249.96 46.264 251.021 42.7446L249.106 42.1675C248.055 45.656 247.079 48.0383 246.199 49.4019L247.88 50.4861ZM251.021 42.7445L261.173 9.04848L259.258 8.47153L249.106 42.1675L251.021 42.7445ZM261.168 9.0632C261.479 8.08733 261.833 7.55665 262.145 7.30196L260.878 5.75404C260.133 6.36335 259.624 7.32067 259.262 8.4568L261.168 9.0632ZM262.111 7.328C262.45 7.07388 263.023 6.88 263.959 6.88V4.88C262.784 4.88 261.725 5.11812 260.911 5.728L262.111 7.328ZM263.959 6.88C264.919 6.88 265.457 7.06505 265.735 7.274C265.96 7.44238 266.127 7.70799 266.127 8.256H268.127C268.127 7.22001 267.767 6.29762 266.935 5.674C266.158 5.09095 265.112 4.88 263.959 4.88V6.88ZM266.127 8.256C266.127 8.57916 266.073 8.96897 265.947 9.43289L267.876 9.95912C268.038 9.36703 268.127 8.79684 268.127 8.256H266.127ZM265.956 9.4009L255.66 42.7369L257.571 43.3271L267.867 9.9911L265.956 9.4009ZM255.659 42.7391C254.038 48.0314 252.31 51.6632 250.526 53.7599L252.049 55.0561C254.105 52.6408 255.929 48.6886 257.572 43.3249L255.659 42.7391ZM250.533 53.7518C248.803 55.7413 246.654 56.72 244.015 56.72V58.72C247.233 58.72 249.932 57.4908 252.042 55.0642L250.533 53.7518ZM285.926 54.48L285.229 55.1971L285.239 55.2065L285.926 54.48ZM284.198 6.816L284.905 7.52311L284.905 7.52311L284.198 6.816ZM289.238 6.816L288.531 7.52311L288.545 7.53724L288.56 7.55081L289.238 6.816ZM319.838 56.28L319.228 55.4874L319.213 55.4993L319.198 55.5118L319.838 56.28ZM293.414 56C290.371 56 288.151 55.2081 286.613 53.7535L285.239 55.2065C287.253 57.1119 290.026 58 293.414 58V56ZM286.623 53.763C285.132 52.3137 284.334 50.2695 284.334 47.496H282.334C282.334 50.6745 283.264 53.2863 285.229 55.197L286.623 53.763ZM284.334 47.496V9.264H282.334V47.496H284.334ZM284.334 9.264C284.334 8.39121 284.568 7.86061 284.905 7.52311L283.491 6.10889C282.677 6.92339 282.334 8.02479 282.334 9.264H284.334ZM284.905 7.52311C285.306 7.12277 285.871 6.88 286.718 6.88V4.88C285.453 4.88 284.339 5.26123 283.491 6.10889L284.905 7.52311ZM286.718 6.88C287.565 6.88 288.131 7.12277 288.531 7.52311L289.945 6.10889C289.098 5.26123 287.983 4.88 286.718 4.88V6.88ZM288.56 7.55081C288.931 7.89317 289.174 8.41426 289.174 9.264H291.174C291.174 8.00174 290.794 6.89082 289.916 6.0812L288.56 7.55081ZM289.174 9.264V47.568H291.174V9.264H289.174ZM289.174 47.568C289.174 48.9442 289.535 50.1577 290.354 51.1029L291.866 49.7931C291.437 49.2983 291.174 48.5918 291.174 47.568H289.174ZM290.354 51.1029C291.199 52.0779 292.359 52.528 293.702 52.528V50.528C292.837 50.528 292.269 50.2581 291.866 49.7931L290.354 51.1029ZM293.702 52.528H317.39V50.528H293.702V52.528ZM317.39 52.528C318.409 52.528 318.989 52.7383 319.299 52.9896C319.57 53.2082 319.774 53.5691 319.774 54.264L321.774 54.264C321.774 53.1349 321.415 52.1279 320.557 51.4344C319.74 50.7738 318.627 50.528 317.39 50.528V52.528ZM319.774 54.264C319.774 54.8523 319.58 55.2169 319.228 55.4874L320.448 57.0726C321.344 56.3831 321.774 55.4037 321.774 54.264L319.774 54.264ZM319.198 55.5118C318.863 55.7911 318.306 56 317.39 56V58C318.586 58 319.662 57.7289 320.478 57.0482L319.198 55.5118ZM317.39 56H293.414V58H317.39V56ZM338.98 56.856L338.245 57.5343L338.272 57.5637L338.302 57.5908L338.98 56.856ZM338.98 6.816L339.687 7.52311L339.687 7.52311L338.98 6.816ZM343.948 6.816L343.241 7.52311L343.255 7.53724L343.27 7.55081L343.948 6.816ZM343.948 56.856L344.626 57.5908L344.641 57.5773L344.655 57.5631L343.948 56.856ZM341.428 56.72C340.622 56.72 340.064 56.4956 339.658 56.1212L338.302 57.5908C339.144 58.3684 340.219 58.72 341.428 58.72V56.72ZM339.715 56.1777C339.348 55.7806 339.116 55.2046 339.116 54.336H337.116C337.116 55.5794 337.46 56.6834 338.245 57.5343L339.715 56.1777ZM339.116 54.336V9.264H337.116V54.336H339.116ZM339.116 9.264C339.116 8.39121 339.35 7.86061 339.687 7.52311L338.273 6.10889C337.458 6.92339 337.116 8.02479 337.116 9.264H339.116ZM339.687 7.52311C340.096 7.11377 340.644 6.88 341.428 6.88V4.88C340.196 4.88 339.112 5.27023 338.273 6.10889L339.687 7.52311ZM341.428 6.88C342.275 6.88 342.841 7.12277 343.241 7.52311L344.655 6.10889C343.807 5.26123 342.693 4.88 341.428 4.88V6.88ZM343.27 7.55081C343.641 7.89317 343.884 8.41426 343.884 9.264H345.884C345.884 8.00174 345.503 6.89082 344.626 6.0812L343.27 7.55081ZM343.884 9.264V54.336H345.884V9.264H343.884ZM343.884 54.336C343.884 55.1827 343.641 55.7486 343.241 56.1489L344.655 57.5631C345.503 56.7155 345.884 55.6014 345.884 54.336H343.884ZM343.27 56.1212C342.873 56.4878 342.297 56.72 341.428 56.72V58.72C342.671 58.72 343.775 58.3763 344.626 57.5908L343.27 56.1212ZM406.43 52.752L407.23 52.152L407.219 52.1374L407.208 52.1232L406.43 52.752ZM405.71 57.216L406.157 58.1104L406.202 58.0881L406.244 58.0615L405.71 57.216ZM401.246 55.992L400.469 56.6222L400.478 56.6322L401.246 55.992ZM385.118 36.12L385.894 35.4898L385.118 34.5331L384.342 35.4898L385.118 36.12ZM368.99 55.992L368.213 55.3618L368.206 55.3713L368.99 55.992ZM364.598 57.216L364.064 58.0615L364.106 58.0881L364.151 58.1104L364.598 57.216ZM363.878 52.752L363.1 52.1232L363.089 52.1374L363.078 52.152L363.878 52.752ZM381.23 31.296L382.008 31.9248L382.518 31.2938L382.005 30.6646L381.23 31.296ZM364.814 11.136L364.021 11.7457L364.03 11.7567L364.039 11.7674L364.814 11.136ZM365.39 6.456L365.876 7.33016L365.902 7.31567L365.927 7.29966L365.39 6.456ZM369.782 7.536L368.991 8.14745L368.998 8.15649L369.005 8.16537L369.782 7.536ZM385.118 26.472L384.341 27.1014L385.118 28.0609L385.895 27.1014L385.118 26.472ZM400.454 7.536L399.68 6.90275L399.677 6.90663L400.454 7.536ZM404.846 6.456L405.411 5.63069L405.397 5.62128L405.383 5.61234L404.846 6.456ZM405.422 11.136L404.685 10.4603L404.664 10.4827L404.645 10.5062L405.422 11.136ZM389.078 31.296L388.301 30.6662L387.791 31.2952L388.3 31.9248L389.078 31.296ZM405.63 53.352C405.932 53.7549 406.078 54.1924 406.078 54.696H408.078C408.078 53.7596 407.792 52.9011 407.23 52.152L405.63 53.352ZM406.078 54.696C406.078 55.4667 405.79 55.9829 405.176 56.3705L406.244 58.0615C407.454 57.2971 408.078 56.1333 408.078 54.696H406.078ZM405.263 56.3216C404.641 56.6324 404.255 56.72 404.054 56.72V58.72C404.717 58.72 405.435 58.4717 406.157 58.1104L405.263 56.3216ZM404.054 56.72C403.585 56.72 402.904 56.4197 402.014 55.3518L400.478 56.6322C401.508 57.8684 402.699 58.72 404.054 58.72V56.72ZM402.022 55.3618L385.894 35.4898L384.342 36.7502L400.47 56.6222L402.022 55.3618ZM384.342 35.4898L368.214 55.3618L369.766 56.6222L385.894 36.7502L384.342 35.4898ZM368.206 55.3713C367.381 56.4132 366.703 56.72 366.182 56.72V58.72C367.581 58.72 368.775 57.8749 369.774 56.6127L368.206 55.3713ZM366.182 56.72C366.041 56.72 365.687 56.6424 365.045 56.3216L364.151 58.1104C364.853 58.4617 365.555 58.72 366.182 58.72V56.72ZM365.132 56.3705C364.518 55.9829 364.23 55.4667 364.23 54.696H362.23C362.23 56.1333 362.854 57.2971 364.064 58.0615L365.132 56.3705ZM364.23 54.696C364.23 54.1924 364.376 53.7549 364.678 53.352L363.078 52.152C362.516 52.9011 362.23 53.7596 362.23 54.696H364.23ZM364.656 53.3808L382.008 31.9248L380.452 30.6672L363.1 52.1232L364.656 53.3808ZM382.005 30.6646L365.589 10.5046L364.039 11.7674L380.455 31.9274L382.005 30.6646ZM365.607 10.5263C365.266 10.0838 365.094 9.58012 365.094 8.976H363.094C363.094 10.0039 363.402 10.9402 364.021 11.7457L365.607 10.5263ZM365.094 8.976C365.094 8.04704 365.402 7.59317 365.876 7.33016L364.904 5.58184C363.65 6.27883 363.094 7.50496 363.094 8.976H365.094ZM365.927 7.29966C366.309 7.05658 366.677 6.952 367.046 6.952V4.952C366.263 4.952 365.527 5.18342 364.853 5.61234L365.927 7.29966ZM367.046 6.952C367.65 6.952 368.298 7.25065 368.991 8.14745L370.573 6.92455C369.634 5.70935 368.458 4.952 367.046 4.952V6.952ZM369.005 8.16537L384.341 27.1014L385.895 25.8426L370.559 6.90663L369.005 8.16537ZM385.895 27.1014L401.231 8.16537L399.677 6.90663L384.341 25.8426L385.895 27.1014ZM401.228 8.16924C401.985 7.24339 402.641 6.952 403.19 6.952V4.952C401.819 4.952 400.651 5.71661 399.68 6.90276L401.228 8.16924ZM403.19 6.952C403.559 6.952 403.927 7.05658 404.309 7.29966L405.383 5.61234C404.709 5.18342 403.973 4.952 403.19 4.952V6.952ZM404.281 7.28131C404.936 7.72922 405.214 8.26793 405.214 8.976H407.214C407.214 7.57207 406.58 6.43079 405.411 5.63069L404.281 7.28131ZM405.214 8.976C405.214 9.61845 405.025 10.0888 404.685 10.4603L406.159 11.8117C406.875 11.0312 407.214 10.0616 407.214 8.976H405.214ZM404.645 10.5062L388.301 30.6662L389.855 31.9258L406.199 11.7658L404.645 10.5062ZM388.3 31.9248L405.652 53.3808L407.208 52.1232L389.856 30.6672L388.3 31.9248Z"
    fill="white"/>
  <rect x="6" y="27" width="44" height="29" rx="2" stroke="white" stroke-width="2"/>
  <path d="M50.5 47.4818V35.5182L53.8466 33.1558C55.1715 32.2207 57 33.1681 57 34.7898V48.2102C57 49.8319 55.1715 50.7793 53.8466 49.8442L50.5 47.4818Z" stroke="white" stroke-width="2"/>
  <circle cx="18" cy="17" r="10" stroke="white" stroke-width="2"/>
  <circle cx="39" cy="17" r="10" stroke="white" stroke-width="2"/>
</svg>
